<svg id="Слой_1" xmlns="http://www.w3.org/2000/svg" viewBox="0 0 94.3 38.1"><style>.st0{fill:#545472}</style><path class="st0" d="M61.7 37.6c-2.3 0-4.3-1.9-4.3-4.3v-.5h-20v.5c0 2.3-1.9 4.3-4.3 4.3h-3.2c-2.3 0-4.3-1.9-4.3-4.3v-7.8l-1-4.5c-.4-1.4.1-3 1.1-4l1.2-1.1-2.4-2.4c-.2-.2-.3-.5-.3-.8 0-.3.1-.6.3-.8s.5-.3.8-.3c.3 0 .6.1.8.3l2.3 2.3.7-.5L33 3.2c.6-1.7 2.2-2.8 4-2.8h21c1.8 0 3.4 1.2 4 2.8l3.9 10.3.7.7 2.4-2.4c.2-.2.5-.3.8-.3s.6.1.8.3.3.5.3.8c0 .3-.1.6-.3.8l-2.4 2.4 1.2 1.1c1 1 1.5 2.6 1.1 4l-1.1 4.5v7.8c0 2.3-1.9 4.3-4.3 4.3h-3.4zm-2.1-4.3c0 1.2.9 2.1 2.1 2.1h3.2c1.2 0 2.1-.9 2.1-2.1v-2.8l-.8.7c-1.3 1.1-3 1.6-4.6 1.6h-1.9v.5zm-31.7 0c0 1.2.9 2.1 2.1 2.1h3.2c1.2 0 2.1-.9 2.1-2.1v-.5h-1.9c-1.7 0-3.3-.6-4.6-1.6l-.8-.7v2.8zm-.7-14.8c-.5.5-.7 1.3-.6 2l1.6 6.1c.6 2.3 2.7 4 5.1 4h28.2c2.4 0 4.5-1.7 5.1-4l1.6-6.1c.2-.7 0-1.5-.6-2L66 16.9H28.7l-1.5 1.6zm9.6-15.8c-.9 0-1.7.5-2 1.4l-4 10.7h32.9L59.8 4c-.3-.8-1.1-1.4-2-1.4l-21 .1z"/><path class="st0" d="M35.5 26.5c-1.9 0-3.5-1.6-3.5-3.5s1.6-3.5 3.5-3.5h23.8c1.9 0 3.5 1.6 3.5 3.5s-1.6 3.5-3.5 3.5H35.5zm0-4.8c-.7 0-1.3.6-1.3 1.3s.6 1.3 1.3 1.3h23.8c.7 0 1.3-.6 1.3-1.3s-.6-1.3-1.3-1.3H35.5zm50.8-1.5c-.7 0-1.2-.5-1.2-1.2s.5-1.2 1.2-1.2h6.8c.7 0 1.2.5 1.2 1.2s-.5 1.2-1.2 1.2h-6.8zm-2.5-9.3c-.4 0-.8-.2-1-.6-.2-.3-.2-.6-.1-.9.1-.3.3-.6.6-.7L89 5.2c.2-.1.4-.2.6-.2.4 0 .8.2 1 .6.2.3.2.6.1.9-.1.3-.3.6-.6.7l-5.9 3.4c0 .2-.2.3-.4.3zM89.6 33c-.2 0-.4-.1-.6-.2l-5.9-3.4c-.3-.2-.5-.4-.6-.7-.1-.3 0-.6.1-.9.2-.4.6-.6 1-.6.2 0 .4.1.6.2l5.9 3.4c.6.3.8 1 .5 1.6-.1.4-.5.6-1 .6z"/><path class="st0" d="M86.3 20.2c-.7 0-1.2-.5-1.2-1.2s.5-1.2 1.2-1.2h6.8c.7 0 1.2.5 1.2 1.2s-.5 1.2-1.2 1.2h-6.8zm-2.5-9.3c-.4 0-.8-.2-1-.6-.2-.3-.2-.6-.1-.9.1-.3.3-.6.6-.7L89 5.2c.2-.1.4-.2.6-.2.4 0 .8.2 1 .6.2.3.2.6.1.9-.1.3-.3.6-.6.7l-5.9 3.4c0 .2-.2.3-.4.3zM89.6 33c-.2 0-.4-.1-.6-.2l-5.9-3.4c-.3-.2-.5-.4-.6-.7-.1-.3 0-.6.1-.9.2-.4.6-.6 1-.6.2 0 .4.1.6.2l5.9 3.4c.6.3.8 1 .5 1.6-.1.4-.5.6-1 .6zM5.1 33c-.4 0-.8-.2-1-.6-.3-.6-.1-1.3.4-1.6l5.9-3.4c.2-.1.4-.2.6-.2.4 0 .8.2 1 .6.3.6.1 1.3-.4 1.6l-5.9 3.4c-.2.1-.4.2-.6.2zM1.7 20.2C1 20.2.5 19.7.5 19s.5-1.2 1.2-1.2h6.8c.7 0 1.2.5 1.2 1.2s-.5 1.2-1.2 1.2H1.7zm9.3-9.3c-.2 0-.4-.1-.6-.2L4.5 7.3c-.3-.2-.5-.4-.5-.7-.1-.3 0-.6.1-.9.2-.4.6-.6 1-.6.2 0 .4.1.6.2l5.9 3.4c.3.2.5.4.6.7s0 .6-.1.9c-.3.3-.7.6-1.1.6z"/></svg>