<svg id="Слой_1" xmlns="http://www.w3.org/2000/svg" viewBox="0 0 144 36.3"><style>.st0{fill:#fff}</style><path class="st0" d="M43.2 24.8h4.3c.2 2.2 1.4 3 4 3 2.5 0 3.5-.8 3.5-2.1s-.8-1.9-3.5-2.4l-2-.4c-3.8-.7-5.8-2.4-5.8-5.4 0-3.4 2.6-5.4 7.4-5.4 5.5 0 7.7 2.4 7.9 6h-4.1c-.1-2.3-1.5-2.9-3.8-2.9-2.1 0-3.1.8-3.1 2.1s1 1.8 3 2.2l2.2.4c4.3.8 6.2 2.4 6.2 5.4 0 3.6-2.9 5.6-7.9 5.6-5.2 0-8-1.8-8.3-6.1zm44.9-12.2l-5.9 17.8h-4.6l-2.2-7.3c-.5-1.8-1-3.6-1.5-5.3-.5 1.8-1 3.6-1.5 5.3l-2.2 7.3h-4.6l-5.9-17.8h4.7l2 6.7c.6 2 1.2 4.1 1.8 6.2.5-2.1 1.1-4.1 1.7-6.2l2-6.6H76l2 6.6c.6 2.1 1.2 4.1 1.7 6.2.6-2 1.1-4.1 1.8-6.2l2-6.7h4.6zm1.7 0h4.4v17.8h-4.4V12.6zm.1-6.4h4.3v4.1h-4.3V6.2zm13.6 9.7v9.7c0 1.2.6 1.6 2 1.6h1.5v3.3c-.8.1-1.6.1-2.3.1-3.8 0-5.6-1.3-5.6-4.6V15.9h-2.8v-3.3h2.8V7.4h4.3v5.2h3.5v3.3h-3.4zm4.9 5.6c0-5.7 3.5-9.3 8.8-9.3 4.7 0 7.8 2.7 8.3 6.8h-4.4c-.4-2.2-2-3.2-3.9-3.2-2.6 0-4.4 1.8-4.4 5.7s1.8 5.7 4.4 5.7c2 0 3.7-1.1 4-3.4h4.4c-.5 4.4-3.8 7.1-8.4 7.1-5.2 0-8.8-3.7-8.8-9.4zm35.6-2.9v11.8h-4.4v-11c0-2.3-1.1-3.4-3.4-3.4-1.9 0-4 1.3-4 4.5v10H128V5.8h4.4V15c1.2-1.8 3.3-2.8 5.4-2.8 3.7 0 6.2 2.2 6.2 6.4zM0 0v36.3h36.3V0H0zm28.5 21.2c0 6.4-4 9.8-10.3 9.8-6.2 0-10.3-3.4-10.3-9.8V5.8h4.7v15.4c0 3.9 2.1 5.7 5.6 5.7s5.6-1.8 5.6-5.7V5.8h4.7v15.4z"/></svg>